<?xml version="1.0" encoding="UTF-8" standalone="no"?>
<svg
   xmlns:dc="http://purl.org/dc/elements/1.1/"
   xmlns:cc="http://creativecommons.org/ns#"
   xmlns:rdf="http://www.w3.org/1999/02/22-rdf-syntax-ns#"
   xmlns:svg="http://www.w3.org/2000/svg"
   xmlns="http://www.w3.org/2000/svg"
   viewBox="0 0 384 384"
   height="384"
   width="384"
   xml:space="preserve"
   id="svg2"
   version="1.1"><metadata
     id="metadata8"><rdf:RDF><cc:Work
         rdf:about=""><dc:format>image/svg+xml</dc:format><dc:type
           rdf:resource="http://purl.org/dc/dcmitype/StillImage" /></cc:Work></rdf:RDF></metadata><defs
     id="defs6"><clipPath
       id="clipPath18"
       clipPathUnits="userSpaceOnUse"><path
         id="path16"
         d="M 0,288 H 288 V 0 H 0 Z" /></clipPath></defs><g
     transform="matrix(1.3333333,0,0,-1.3333333,0,384)"
     id="g10"><g
       id="g12"><g
         clip-path="url(#clipPath18)"
         id="g14"><g
           transform="translate(191.0778,194.8352)"
           id="g20"><path
             id="path22"
             style="fill:#000000;fill-opacity:1;fill-rule:nonzero;stroke:none"
             d="m 0,0 c -0.75,-4.327 -3.115,-7.979 -6.369,-11.192 -2.309,-2.281 -4.83,-4.411 -7.357,-6.519 -5.52,-4.607 -5.84,-14.472 3.678,-17.412 1.617,-0.5 3.126,-1.263 4.676,-1.92 3.244,-1.374 5.952,-3.184 6.789,-6.835 0.912,1.286 1.512,2.217 2.203,3.094 2.382,3.029 4.639,6.156 8.407,8.131 1.762,0.924 3.511,1.868 5.229,2.851 2.394,1.37 4.039,3.214 4.614,5.687 0.673,2.898 -0.388,5.382 -2.424,7.655 -1.517,1.693 -2.968,3.408 -3.325,5.636 -0.213,1.329 -0.654,2.631 -1.091,4.332 -1.169,-2.37 -1.528,-4.335 -1.028,-6.46 0.445,-1.889 0.675,-3.822 0.887,-5.744 0.671,-6.064 -6.651,-10.553 -13.218,-9.186 -4.652,0.969 -8.178,5.785 -6.997,9.79 0.712,2.415 2.012,4.719 3.226,7.002 C -0.217,-7.549 0.608,-3.896 0,0 m -96.957,-44.989 c 0.781,0.981 1.397,2.109 2.374,2.912 2.813,2.312 5.62,4.665 8.706,6.689 6.477,4.247 9.638,9.618 8.302,16.661 -0.708,3.733 -2.077,7.315 -5.686,9.735 -5.738,3.847 -9.995,8.604 -12.817,14.345 -0.487,0.99 -0.962,1.985 -1.442,2.977 0.903,-5.754 2.073,-8.678 4.709,-11.962 2.824,-3.518 4.66,-7.374 5.588,-11.567 1.233,-5.569 -1.517,-10.849 -7.244,-13.457 -2.778,-1.265 -5.773,-1.987 -8.963,-1.077 -6.433,1.835 -10.786,6.51 -8.766,13.346 0.536,1.815 0.882,3.672 1.316,5.51 -1.657,-1.976 -2.982,-3.997 -4.415,-5.961 -3.749,-5.137 -3.974,-9.361 -0.884,-14.15 0.894,-1.384 2.226,-2.198 4.003,-2.621 5.538,-1.319 10.164,-3.744 13.055,-8.205 0.692,-1.068 1.436,-2.11 2.164,-3.175 m 55.696,-37.092 c 0,-4.49 0.089,-8.654 -0.025,-12.814 -0.116,-4.215 -0.623,-8.426 -0.614,-12.639 0.013,-6.111 0.344,-12.222 0.524,-18.333 0.08,-2.732 0.118,-5.464 0.184,-8.196 0.133,-5.508 0.321,-11.016 0.394,-16.524 0.071,-5.31 0.22,-10.63 -1.014,-15.881 -0.225,-0.959 -0.277,-1.983 -0.717,-2.862 -0.701,-1.401 -2.265,-1.937 -3.926,-1.69 -1.815,0.269 -2.366,1.231 -2.567,2.714 -0.19,1.397 -0.952,2.73 -1.246,4.125 -1.153,5.461 -1.093,10.984 -0.917,16.502 0.311,9.778 0.947,19.556 0.944,29.334 -0.003,8.288 -0.704,16.576 -1.121,24.862 -0.162,3.222 -0.447,6.44 -0.568,9.663 -0.046,1.228 -0.401,1.746 -1.992,1.677 -6.356,-0.272 -12.72,-0.41 -19.08,-0.638 -6.158,-0.22 -12.314,-0.49 -18.471,-0.741 -0.225,-0.01 -0.448,-0.058 -0.834,-0.11 0,-2.631 0.009,-5.248 -0.003,-7.864 -0.011,-2.571 0.081,-5.149 -0.093,-7.712 -0.399,-5.856 -1.197,-11.699 -1.352,-17.557 -0.274,-10.341 -1.615,-20.593 -2.865,-30.858 -0.468,-3.845 -1.018,-7.684 -1.63,-11.515 -0.373,-2.334 -1.299,-4.506 -3.09,-6.363 -0.508,-0.527 -0.885,-1.163 -1.233,-1.785 -0.751,-1.344 -2.477,-2.157 -3.989,-1.595 -0.604,0.225 -1.226,0.982 -1.324,1.562 -1.306,7.726 0.704,15.266 1.806,22.862 0.507,3.494 0.822,7.009 1.185,10.517 0.419,4.048 0.871,8.096 1.169,12.151 0.264,3.603 0.399,7.215 0.484,10.825 0.173,7.341 0.349,14.684 0.383,22.026 0.029,6.129 0.027,12.265 -0.281,18.385 -0.225,4.461 -0.949,8.904 -1.495,13.351 -0.211,1.725 -0.544,3.439 -0.822,5.157 -0.783,4.823 -3.531,8.31 -8.797,10.447 -3.159,1.282 -6.038,3.088 -8.996,4.721 -6.019,3.324 -8.509,13.267 -3.483,19.019 1.862,2.131 4.165,3.978 6.292,5.934 2.548,2.342 4.636,4.926 4.213,8.288 -0.216,1.714 -1.096,3.377 -1.78,5.031 -0.261,0.631 -0.813,1.173 -1.212,1.728 1.982,2.338 1.863,2.149 4.793,0.782 2.432,-1.134 4.615,-2.332 6.188,-4.338 3.232,-4.121 4.372,-8.485 2.71,-13.364 -0.575,-1.686 -0.834,-3.499 -0.882,-5.261 -0.106,-3.902 3.705,-5.922 7.579,-3.972 1.366,0.687 2.818,1.81 3.375,3.024 1.756,3.831 2.236,7.719 -0.201,11.632 -2.665,4.278 -5.443,8.561 -7.416,13.086 -2.237,5.13 -0.807,10.278 1.712,15.183 2.071,4.033 5.404,7.251 9.023,10.266 0.449,0.374 1.356,0.341 2.051,0.497 0.087,-0.577 0.229,-1.152 0.239,-1.73 0.005,-0.321 -0.139,-0.681 -0.335,-0.961 -3.729,-5.332 -3.995,-10.826 -1.879,-16.753 1.839,-5.15 5.292,-9.096 10.073,-12.302 4.676,-3.136 8.829,-6.693 11.99,-10.999 3.561,-4.851 4.276,-10.063 2.062,-15.562 -1.387,-3.444 -3.631,-6.265 -7.081,-8.413 -1.488,-0.925 -2.717,-2.164 -4.225,-3.059 -1.632,-0.968 -3.543,-1.588 -5.176,-2.555 -4.665,-2.764 -7.571,-6.68 -8.094,-11.454 -0.456,-4.164 0.065,-8.405 0.12,-12.613 0.035,-2.671 0.007,-5.343 0.007,-7.914 30.437,-1.806 60.464,0.489 90.412,0.584 0,2.583 -0.059,4.892 0.015,7.198 0.086,2.667 0.382,5.33 0.418,7.996 0.05,3.723 0.772,7.566 -2.283,10.828 -2.448,2.616 -5.373,4.623 -9.163,5.595 -8.348,2.14 -12.689,7.42 -14.335,14.352 -0.906,3.815 1.075,7.252 3.922,10.286 3.999,4.262 8.694,7.904 13.256,11.691 5.448,4.523 7.174,10.238 5.715,16.644 -0.122,0.536 -0.36,1.099 -0.27,1.614 0.092,0.521 0.443,1.349 0.824,1.414 0.621,0.105 1.568,-0.125 2.017,-0.518 C 3.04,9.562 4.795,3.873 5.308,-2.102 5.634,-5.898 4.056,-9.436 1.878,-12.74 c -1.239,-1.88 -2.321,-3.777 -1.411,-6.06 0.567,-1.421 1.559,-2.075 3.344,-2.032 4.072,0.096 5.771,1.458 5.742,4.907 -0.015,1.835 -0.255,3.668 -0.357,5.503 -0.295,5.316 2.471,9.508 6.709,13.075 1.43,1.204 3.109,2.236 4.836,3.108 0.738,0.373 2.09,0.444 2.807,0.101 0.957,-0.456 0.641,-1.46 0.127,-2.266 -0.524,-0.822 -0.993,-1.669 -1.497,-2.5 -2.725,-4.498 0.285,-9.686 3.692,-12.739 2.419,-2.168 4.535,-4.503 5.796,-7.327 2.207,-4.941 0.144,-9.116 -3.574,-12.866 -2.55,-2.572 -5.804,-4.325 -9.18,-5.989 C 13.25,-40.616 9.956,-45.009 8.65,-50.392 8.081,-52.736 8.374,-55.238 8.299,-57.669 8.131,-63.075 7.889,-68.481 7.845,-73.888 7.804,-79.091 7.89,-84.298 8.07,-89.499 c 0.303,-8.766 0.653,-17.531 1.14,-26.29 0.156,-2.818 0.84,-5.612 1.217,-8.423 0.627,-4.679 1.105,-9.375 1.827,-14.042 0.592,-3.831 1.509,-7.623 2.168,-11.447 0.601,-3.486 1.032,-6.994 1.571,-10.489 0.22,-1.423 0.64,-2.829 0.764,-4.256 0.145,-1.672 -0.771,-2.857 -2.283,-3.351 -1.692,-0.553 -2.799,0.554 -3.824,1.254 -1.064,0.728 -1.829,1.875 -2.469,2.951 -2.546,4.28 -3.965,8.866 -4.708,13.616 -0.576,3.683 -1.224,7.359 -1.692,11.052 -0.635,5.015 -1.252,10.036 -1.653,15.067 -0.503,6.329 -0.786,12.671 -1.152,19.007 -0.198,3.42 -0.442,6.839 -0.539,10.261 -0.102,3.564 -0.079,7.132 -0.048,10.698 0.007,0.837 -0.12,1.303 -1.279,1.29 -4.717,-0.053 -9.436,-0.097 -14.153,-0.055 -5.706,0.052 -11.412,0.179 -17.117,0.302 -2.292,0.05 -4.581,0.174 -7.101,0.273" /></g><g
           transform="translate(170.1789,220.193)"
           id="g24"><path
             id="path26"
             style="fill:#000000;fill-opacity:1;fill-rule:nonzero;stroke:none"
             d="m 0,0 c 0,-0.455 -0.011,-0.911 0.002,-1.366 0.126,-4.733 -5.405,-8.922 -10.822,-8.149 -4.423,0.631 -8.218,4.467 -7.893,8.705 0.196,2.549 0.735,5.106 1.44,7.593 1.387,4.889 0.396,9.242 -2.913,13.411 -2.347,2.955 -4.194,6.204 -6.022,8.958 -0.228,-3.024 -0.075,-6.525 1.309,-9.985 2.624,-6.559 5.203,-13.152 4.165,-20.277 -0.668,-4.582 -2.31,-8.814 -6.244,-12.139 -1.933,-1.633 -4.337,-2.506 -7.036,-2.119 -5.357,0.767 -10.457,4.99 -10.962,9.649 -0.157,1.447 -0.262,2.898 -0.418,4.651 -0.402,-0.706 -0.675,-1.165 -0.928,-1.632 -3.833,-7.09 -0.691,-15.274 6.448,-19.471 2.313,-1.359 4.465,-2.936 6.581,-4.522 2.559,-1.917 4.435,-4.246 5.534,-7.062 0.639,-1.639 1.63,-3.177 2.474,-4.782 1.771,2.466 3.346,4.692 4.958,6.896 2.36,3.226 5.446,5.876 8.866,8.27 3.793,2.657 7.573,5.282 10.669,8.636 C 3.645,-9.93 2.06,-5.024 0,0 m -19.97,-77.484 c 7.349,0 14.511,0.003 21.674,-0.002 2.02,-10e-4 3.805,-0.546 5.305,-1.743 0.245,-0.196 0.557,-0.397 0.872,-0.451 1.063,-0.182 1.856,-0.542 1.904,-1.605 0.05,-1.103 -0.483,-1.857 -1.605,-2.43 -2.951,-1.506 -6.173,-1.765 -9.504,-1.805 -7.668,-0.094 -15.334,-0.309 -23.001,-0.402 -5.41,-0.066 -10.823,0.038 -16.232,-0.029 -3.692,-0.046 -7.385,-0.412 -11.069,-0.334 -2.32,0.049 -4.66,0.535 -6.924,1.046 -1.904,0.429 -3.066,1.853 -3.011,3.431 0.051,1.492 1.316,2.425 2.768,2.742 2.323,0.509 4.74,0.854 7.133,0.938 6.196,0.215 12.401,0.247 18.603,0.362 0.562,0.011 1.122,0.098 1.62,0.143 0.383,5.752 0.928,11.373 1.069,17.001 0.086,3.41 -0.312,6.845 -0.744,10.246 -0.661,5.19 -2.149,10.232 -4.513,15.048 -0.413,0.841 -1.39,1.493 -2.17,2.179 -0.76,0.667 -1.529,1.359 -2.422,1.875 -1.964,1.136 -3.947,2.267 -6.033,3.22 -3.311,1.514 -5.778,3.786 -7.892,6.341 -1.194,1.443 -2.148,3.064 -2.98,4.692 -2.115,4.141 -1.206,8.315 0.895,12.114 2.069,3.741 4.945,7.155 7.506,10.691 2.275,3.142 4.636,6.282 3.919,10.221 -0.261,1.433 -1.108,2.78 -1.555,4.198 -0.184,0.583 -0.017,1.248 -0.01,1.877 0.745,-0.013 1.655,0.21 2.209,-0.076 4.826,-2.498 9.172,-8.768 7.679,-14.115 -0.782,-2.799 -1.608,-5.589 -2.426,-8.38 -0.593,-2.024 -0.175,-3.98 0.737,-5.828 1.55,-3.142 5.918,-3.257 8.478,-0.206 2.193,2.615 2.867,5.699 3.366,8.825 0.709,4.444 -0.948,8.525 -2.402,12.665 -1.316,3.748 -2.679,7.509 -3.537,11.344 -0.998,4.458 0.998,8.531 3.319,12.404 1.894,3.162 4.381,5.967 7.903,7.957 0.395,0.223 1.254,0.411 1.412,0.254 0.323,-0.323 0.547,-0.951 0.406,-1.346 -0.469,-1.313 -1.146,-2.57 -1.692,-3.864 -2.134,-5.056 -1.791,-9.751 2.3,-14.131 2.664,-2.851 5.221,-5.793 6.359,-9.482 1.109,-3.593 0.598,-7.036 -0.361,-10.555 -0.588,-2.159 -0.911,-4.394 -1.066,-6.61 -0.126,-1.82 1.11,-3.25 2.661,-3.668 1.978,-0.534 4.225,0.409 4.988,2.218 1.062,2.517 0.912,5.138 0.181,7.654 -1.444,4.968 0.858,11.775 6.071,14.258 0.393,0.187 0.697,0.514 1.067,0.794 C 3.163,21.091 2.908,19.704 2.263,18.083 0.516,13.691 1.76,9.617 4.665,5.929 9.264,0.091 11.196,-6.112 9.151,-13.108 c -0.946,-3.231 -2.738,-6.075 -5.396,-8.346 -2.975,-2.541 -6.503,-4.594 -9.625,-7.017 -2.513,-1.951 -4.817,-4.106 -7.149,-6.223 -5.04,-4.572 -6.278,-10.414 -7.365,-16.332 -1.512,-8.242 -0.692,-16.447 0.26,-24.66 0.062,-0.538 0.093,-1.079 0.154,-1.798" /></g><g
           transform="translate(115.1765,38.2056)"
           id="g28"><path
             id="path30"
             style="fill:#000000;fill-opacity:1;fill-rule:nonzero;stroke:none"
             d="m 0,0 c 0.665,4.916 1.43,9.825 1.964,14.752 0.417,3.846 0.674,7.713 0.776,11.575 0.14,5.35 0.265,10.71 0.035,16.055 -0.279,6.5 -0.96,12.987 -1.402,19.483 -0.076,1.128 0.152,2.274 0.281,3.408 0.139,1.216 0.749,2.084 2.357,2.05 0.923,-0.019 1.153,1.251 2.635,0.6 2.997,-1.315 3.46,-3.747 3.831,-5.974 1.03,-6.172 1.933,-12.383 2.311,-18.604 C 13.076,38.617 12.665,33.838 12.239,29.103 11.642,22.481 10.827,15.87 9.927,9.272 9.572,6.672 8.842,4.098 8.083,1.557 7.581,-0.121 7.172,-1.938 4.434,-2.258 3.731,-2.34 3.391,-3.699 2.018,-3.135 0.399,-2.47 0.242,-1.327 0,0" /></g><g
           transform="translate(161.0696,81.6445)"
           id="g32"><path
             id="path34"
             style="fill:#000000;fill-opacity:1;fill-rule:nonzero;stroke:none"
             d="m 0,0 c 0.333,4.552 0.72,10.583 1.25,16.605 0.155,1.77 0.545,3.556 1.131,5.258 0.851,2.473 2.227,3.209 5.012,3.058 0.554,-0.03 1.245,-0.682 1.551,-1.191 1.734,-2.882 1.645,-6.021 1.544,-9.146 C 10.263,7.593 9.904,0.604 9.83,-6.388 c -0.041,-3.934 0.294,-7.877 0.61,-11.806 0.371,-4.633 0.862,-9.26 1.382,-13.883 0.393,-3.5 0.936,-6.987 1.359,-10.485 0.093,-0.774 0.173,-1.641 -0.137,-2.334 -0.288,-0.645 -1.03,-1.46 -1.709,-1.568 -0.753,-0.12 -1.903,0.28 -2.459,0.792 -2.385,2.2 -3.474,4.964 -4.175,7.861 -0.951,3.926 -2.366,7.813 -2.793,11.78 C 1.029,-17.881 0.675,-9.689 0,0" /></g></g></g></g></svg>